<svg width="23" height="24" viewBox="0 0 23 24" fill="none" xmlns="http://www.w3.org/2000/svg">
<g clip-path="url(#clip0_6_235)">
<path d="M8.62496 19C3.83329 20.5 3.83329 16.5 1.91663 16M15.3333 22V18.13C15.3692 17.6532 15.3075 17.1738 15.1522 16.7238C14.9969 16.2738 14.7515 15.8634 14.4325 15.52C17.4416 15.17 20.6041 13.98 20.6041 8.52C20.6039 7.12383 20.0892 5.7812 19.1666 4.77C19.6035 3.54851 19.5726 2.19835 19.0804 0.999999C19.0804 0.999999 17.9495 0.649999 15.3333 2.48C13.1368 1.85882 10.8215 1.85882 8.62496 2.48C6.00871 0.649999 4.87788 0.999999 4.87788 0.999999C4.38565 2.19835 4.35476 3.54851 4.79163 4.77C3.86216 5.7887 3.34696 7.14346 3.35413 8.55C3.35413 13.97 6.51663 15.16 9.52579 15.55C9.2105 15.89 8.96734 16.2954 8.81213 16.7399C8.65692 17.1844 8.59315 17.6581 8.62496 18.13V22" stroke="white" stroke-width="2" stroke-linecap="round" stroke-linejoin="round"/>
</g>
<defs>
<clipPath id="clip0_6_235">
<rect width="23" height="24" fill="white"/>
</clipPath>
</defs>
</svg>
