<svg width="46" height="114" viewBox="0 0 46 114" fill="none" xmlns="http://www.w3.org/2000/svg">
<path d="M11.7071 100.293C11.3166 99.9024 10.6834 99.9024 10.2929 100.293C9.90237 100.683 9.90237 101.317 10.2929 101.707L11.7071 100.293ZM23 113L22.2929 113.707C22.6834 114.098 23.3166 114.098 23.7071 113.707L23 113ZM35.7071 101.707C36.0976 101.317 36.0976 100.683 35.7071 100.293C35.3166 99.9024 34.6834 99.9024 34.2929 100.293L35.7071 101.707ZM2 23C2 11.402 11.402 2 23 2V0C10.2975 0 0 10.2975 0 23H2ZM23 2C34.598 2 44 11.402 44 23H46C46 10.2975 35.7025 0 23 0V2ZM44 23V50H46V23H44ZM44 50C44 61.598 34.598 71 23 71V73C35.7025 73 46 62.7025 46 50H44ZM23 71C11.402 71 2 61.598 2 50H0C0 62.7025 10.2975 73 23 73V71ZM2 50V23H0V50H2ZM18 18C18 15.2386 20.2386 13 23 13V11C19.134 11 16 14.134 16 18H18ZM23 13C25.7614 13 28 15.2386 28 18H30C30 14.134 26.866 11 23 11V13ZM28 18V26H30V18H28ZM28 26C28 28.7614 25.7614 31 23 31V33C26.866 33 30 29.866 30 26H28ZM23 31C20.2386 31 18 28.7614 18 26H16C16 29.866 19.134 33 23 33V31ZM18 26V18H16V26H18ZM22 17V21H24V17H22ZM25 83C25 84.1046 24.1046 85 23 85V87C25.2091 87 27 85.2091 27 83H25ZM23 85C21.8954 85 21 84.1046 21 83H19C19 85.2091 20.7909 87 23 87V85ZM21 83C21 81.8954 21.8954 81 23 81V79C20.7909 79 19 80.7909 19 83H21ZM23 81C24.1046 81 25 81.8954 25 83H27C27 80.7909 25.2091 79 23 79V81ZM25 95C25 96.1046 24.1046 97 23 97V99C25.2091 99 27 97.2091 27 95H25ZM23 97C21.8954 97 21 96.1046 21 95H19C19 97.2091 20.7909 99 23 99V97ZM21 95C21 93.8954 21.8954 93 23 93V91C20.7909 91 19 92.7909 19 95H21ZM23 93C24.1046 93 25 93.8954 25 95H27C27 92.7909 25.2091 91 23 91V93ZM10.2929 101.707L22.2929 113.707L23.7071 112.293L11.7071 100.293L10.2929 101.707ZM23.7071 113.707L35.7071 101.707L34.2929 100.293L22.2929 112.293L23.7071 113.707Z" fill="#00FF55"/>
</svg>
